<?xml version="1.0"?><svg width="640" height="480" xmlns="http://www.w3.org/2000/svg">
 <title>small house</title>
 <metadata id="metadata7">image/svg+xml</metadata>
 <g>
  <title>Layer 1</title>
  <g id="layer1">
   <path d="m442.886932,216.75177l0,0zm0,0l-141.401947,-111.003654l-141.4832,111.05172l0,158.686676c0,4.098267 3.735931,7.385803 8.359268,7.385803l88.423584,0l0,-69.575806c0,-4.098236 3.708801,-7.409882 8.332184,-7.409882l72.65506,0c4.62323,0 8.332184,3.311646 8.332184,7.409882l0,69.575806l88.450745,0c4.623322,0 8.332123,-3.287537 8.332123,-7.385803l0,-158.734741zm-282.885147,0.048065l0,0z" id="rect2391" stroke-miterlimit="4" stroke-width="0.4" fill="#000000"/>
   <path d="m300.66452,45.000011l-200.664467,157.500019l21.137665,21.138184l180.347725,-141.564484l180.30661,141.564484l21.096588,-21.138184l-200.623383,-157.500019l-0.779816,0.8004l-0.820923,-0.8004z" id="path2399" stroke-miterlimit="4" stroke-width="0.4" fill="#000000"/>
   <path d="m160.001785,67.671478l50.869003,0l-0.443207,26.707237l-50.425797,40.380379l0,-67.087616z" id="rect2404" stroke-miterlimit="4" stroke-width="0.4" fill="#000000"/>
  </g>
 </g>
</svg>